<svg width="35" height="35" viewBox="0 0 45 45" fill="none" xmlns="http://www.w3.org/2000/svg">
<path d="M0 1.875C0 0.839467 0.839466 0 1.875 0H16.875C17.9105 0 18.75 0.839466 18.75 1.875V16.875C18.75 17.9105 17.9105 18.75 16.875 18.75H1.875C0.839467 18.75 0 17.9105 0 16.875V1.875Z" fill="#c2c2c2"/>
<path d="M26.25 1.875C26.25 0.839467 27.0895 0 28.125 0H43.125C44.1605 0 45 0.839466 45 1.875V16.875C45 17.9105 44.1605 18.75 43.125 18.75H28.125C27.0895 18.75 26.25 17.9105 26.25 16.875V1.875Z" fill="#c2c2c2"/>
<path d="M0 28.125C0 27.0895 0.839466 26.25 1.875 26.25H16.875C17.9105 26.25 18.75 27.0895 18.75 28.125V43.125C18.75 44.1605 17.9105 45 16.875 45H1.875C0.839467 45 0 44.1605 0 43.125V28.125Z" fill="#c2c2c2"/>
<path d="M26.25 28.125C26.25 27.0895 27.0895 26.25 28.125 26.25H43.125C44.1605 26.25 45 27.0895 45 28.125V43.125C45 44.1605 44.1605 45 43.125 45H28.125C27.0895 45 26.25 44.1605 26.25 43.125V28.125Z" fill="#c2c2c2"/>
</svg>
