<svg width="40" height="54" viewBox="0 0 40 54" fill="none" xmlns="http://www.w3.org/2000/svg">
<path fill-rule="evenodd" clip-rule="evenodd" d="M30.0538 41.2236C30.7133 38.8119 29.4331 33.854 29.4331 33.854C29.4331 33.854 28.5045 37.8932 27.0536 39.3858C25.8159 40.6592 24.2994 41.5424 22.1245 41.7746C23.9027 40.9107 25.1256 39.11 25.1256 37.0284C25.1256 34.1064 22.7159 31.7375 19.7435 31.7375C16.771 31.7375 14.3613 34.1064 14.3613 37.0284C14.3613 37.8265 14.5411 38.5833 14.863 39.2618C13.0038 37.7805 12.7115 35.4059 12.7115 35.4059C12.7115 35.4059 10.6355 44.0252 16.3558 48.0794C22.076 52.134 33.2815 48.6491 33.2815 48.6491C33.2815 48.6491 17.2456 59.9324 5.36273 47.6518C-4.87342 37.0732 2.69107 23.146 2.69107 23.146C2.69107 23.146 2.36439 24.4379 2.36439 25.9377C2.36439 27.4375 3.17755 28.5786 3.17755 28.5786C3.17755 28.5786 5.60315 23.4658 7.49087 21.3866C9.27747 19.4188 11.5171 17.8228 13.4515 16.4443C14.9405 15.3831 16.2488 14.4508 17.0301 13.577C21.3336 8.76496 18.6949 0 18.6949 0C18.6949 0 23.5461 4.27673 24.9005 9.80017C25.4167 11.9056 25.0846 14.3012 24.7877 16.4434C24.3055 19.9211 23.9159 22.7312 27.3987 22.5489C33.0268 22.2541 28.1362 13.577 28.1362 13.577C28.1362 13.577 40.9028 20.2871 39.9491 32.0228C38.9954 43.7586 25.9944 46.4264 25.9944 46.4264C25.9944 46.4264 29.3939 43.6352 30.0538 41.2236Z" fill="#C2C2C2"/>
</svg>
