<svg width="40" height="44" viewBox="0 0 40 44" fill="none" xmlns="http://www.w3.org/2000/svg">
<path fill-rule="evenodd" clip-rule="evenodd" d="M6.42072 37.7216C6.26664 37.5767 6.11424 37.4289 5.96362 37.2783C-1.98787 29.3269 -1.98787 16.4349 5.96362 8.48347C13.9151 0.531946 39.2515 0 39.2515 0C39.2515 0 42.71 29.3269 34.7584 37.2783C27.6964 44.3403 16.7378 45.1302 8.80394 39.6485L15.1967 31.8034L25.4162 29.5969L17.0741 28.7629L22.3756 23.3651L28.4102 22.0431L23.6384 20.6299L28.4102 12.0216L21.6227 19.6349L19.0016 15.9362L19.9243 22.0431L15.1967 27.3727L13.0053 20.6298V29.5969L6.42072 37.7216Z" fill="#C2C2C2"/>
</svg>
