<svg width="35" height="35" viewBox="0 0 35 35" fill="none" xmlns="http://www.w3.org/2000/svg">
<path d="M0 27.7083C0 26.9029 0.652918 26.25 1.45833 26.25H33.5417C34.3471 26.25 35 26.9029 35 27.7083V33.5417C35 34.3471 34.3471 35 33.5417 35H1.45833C0.652919 35 0 34.3471 0 33.5417V27.7083Z" fill="#C2C2C2"/>
<path d="M0 14.5833C0 13.7779 0.652918 13.125 1.45833 13.125H33.5417C34.3471 13.125 35 13.7779 35 14.5833V20.4167C35 21.2221 34.3471 21.875 33.5417 21.875H1.45833C0.652919 21.875 0 21.2221 0 20.4167V14.5833Z" fill="#C2C2C2"/>
<path d="M0 1.45833C0 0.652918 0.652918 0 1.45833 0H33.5417C34.3471 0 35 0.652918 35 1.45833V7.29167C35 8.09708 34.3471 8.75 33.5417 8.75H1.45833C0.652919 8.75 0 8.09708 0 7.29167V1.45833Z" fill="#C2C2C2"/>
</svg>
