<svg width="40" height="40" viewBox="0 0 40 40" fill="none" xmlns="http://www.w3.org/2000/svg">
<path d="M40 20C40 14.6957 37.8929 9.6086 34.1422 5.85787C30.3913 2.10714 25.3042 4.00467e-07 20 0C14.6957 -4.00467e-07 9.6086 2.10714 5.85787 5.85787C2.10714 9.6086 8.00931e-07 14.6957 0 20H40Z" fill="#739AD1"/>
<path fill-rule="evenodd" clip-rule="evenodd" d="M20 3.33333C10.7953 3.33333 3.33333 10.7953 3.33333 20C3.33333 29.2047 10.7953 36.6667 20 36.6667C29.2047 36.6667 36.6667 29.2047 36.6667 20C36.6667 10.7953 29.2047 3.33333 20 3.33333ZM0 20C0 8.9543 8.9543 0 20 0C31.0457 0 40 8.9543 40 20C40 31.0457 31.0457 40 20 40C8.9543 40 0 31.0457 0 20Z" fill="#3E75C3"/>
<path d="M20.0001 25.606C23.0962 25.606 26.3753 23.0961 26.3753 19.9999C26.3753 16.9038 23.0962 14.3939 20.0001 14.3939C16.9039 14.3939 14.394 16.9038 14.394 19.9999C14.394 23.0961 16.9039 25.606 20.0001 25.606Z" fill="white"/>
<path fill-rule="evenodd" clip-rule="evenodd" d="M20.0001 16.0605C17.8244 16.0605 16.0607 17.8242 16.0607 19.9999C16.0607 22.1756 17.8244 23.9393 20.0001 23.9393C22.1757 23.9393 23.9395 22.1756 23.9395 19.9999C23.9395 17.8242 22.1757 16.0605 20.0001 16.0605ZM12.7273 19.9999C12.7273 15.9833 15.9834 12.7272 20.0001 12.7272C24.0167 12.7272 27.2728 15.9833 27.2728 19.9999C27.2728 24.0165 24.0167 27.2727 20.0001 27.2727C15.9834 27.2727 12.7273 24.0165 12.7273 19.9999Z" fill="#3E75C3"/>
<path fill-rule="evenodd" clip-rule="evenodd" d="M0 18.3333H12.0979V21.6667H0V18.3333Z" fill="#3E75C3"/>
<path fill-rule="evenodd" clip-rule="evenodd" d="M28.0072 18.3333L37.6923 18.3332V21.6665L28.0072 21.6667V18.3333Z" fill="#3E75C3"/>
</svg>
