<svg width="25" height="29" viewBox="0 0 25 29" fill="none" xmlns="http://www.w3.org/2000/svg">
<path d="M10.3481 5.53791C10.1415 4.47572 10.8373 3.43093 11.9186 3.39112C13.8149 3.32132 15.7115 3.67994 17.4637 4.45086C19.8168 5.4861 21.7975 7.21541 23.1407 9.40732C24.4839 11.5992 25.1255 14.1491 24.9797 16.7157C24.8338 19.2823 23.9074 21.7431 22.3245 23.7687C20.7416 25.7943 18.5777 27.2881 16.1224 28.05C13.6672 28.812 11.0378 28.8058 8.58625 28.0322C6.13465 27.2587 3.97784 25.7547 2.40452 23.7217C1.2329 22.2077 0.426482 20.4541 0.0358411 18.5971C-0.18692 17.5382 0.658721 16.6106 1.73934 16.5543C2.81997 16.498 3.72026 17.3403 4.01649 18.3811C4.31847 19.442 4.82116 20.4417 5.50353 21.3234C6.58822 22.7251 8.07518 23.7619 9.76536 24.2952C11.4556 24.8285 13.2683 24.8328 14.961 24.3075C16.6537 23.7822 18.1455 22.7524 19.2368 21.3559C20.3281 19.9594 20.9668 18.2629 21.0674 16.4934C21.168 14.7239 20.7256 12.9659 19.7996 11.4548C18.8735 9.94362 17.508 8.75139 15.8857 8.03767C14.8652 7.58867 13.7736 7.34253 12.6712 7.30596C11.5897 7.27008 10.5547 6.6001 10.3481 5.53791Z" fill="#575757"/>
<path d="M10.9727 0.534015C11.6937 0.117756 12.5949 0.638081 12.5949 1.4706V8.96327C12.5949 9.79579 11.6937 10.3161 10.9727 9.89985L4.48389 6.15352C3.76291 5.73726 3.76291 4.69661 4.48389 4.28035L10.9727 0.534015Z" fill="#575757"/>
</svg>
