<svg width="48" height="48" viewBox="0 0 48 48" fill="none" xmlns="http://www.w3.org/2000/svg">
<path d="M24 0C22.8 0 22 0.8 22 2V4C22 5.2 22.8 6 24 6C25.2 6 26 5.2 26 4V2C26 0.8 25.2 0 24 0ZM8.39844 6.39844C7.89844 6.39844 7.4 6.6 7 7C6.2 7.8 6.2 9.00078 7 9.80078L8.39844 11.1992C9.19844 11.9992 10.3992 11.9992 11.1992 11.1992C11.9992 10.3992 11.9992 9.19844 11.1992 8.39844L9.80078 7C9.40078 6.6 8.89844 6.39844 8.39844 6.39844ZM39.6016 6.39844C39.1016 6.39844 38.5992 6.6 38.1992 7L36.8008 8.39844C36.0008 9.19844 36.0008 10.3992 36.8008 11.1992C37.6008 11.9992 38.8016 11.9992 39.6016 11.1992L41 9.80078C41.8 9.00078 41.8 7.8 41 7C40.6 6.6 40.1016 6.39844 39.6016 6.39844ZM24 10C20.287 10 16.726 11.475 14.1005 14.1005C11.475 16.726 10 20.287 10 24C10 27.713 11.475 31.274 14.1005 33.8995C16.726 36.525 20.287 38 24 38C27.713 38 31.274 36.525 33.8995 33.8995C36.525 31.274 38 27.713 38 24C38 20.287 36.525 16.726 33.8995 14.1005C31.274 11.475 27.713 10 24 10ZM2 22C0.8 22 0 22.8 0 24C0 25.2 0.8 26 2 26H4C5.2 26 6 25.2 6 24C6 22.8 5.2 22 4 22H2ZM44 22C42.8 22 42 22.8 42 24C42 25.2 42.8 26 44 26H46C47.2 26 48 25.2 48 24C48 22.8 47.2 22 46 22H44ZM9.80078 36.1992C9.30078 36.1992 8.79844 36.4008 8.39844 36.8008L7 38.1992C6.2 38.9992 6.2 40.2 7 41C7.8 41.8 9.00078 41.8 9.80078 41L11.1992 39.6016C11.9992 38.8016 11.9992 37.6008 11.1992 36.8008C10.7992 36.4008 10.3008 36.1992 9.80078 36.1992ZM38.1992 36.1992C37.6992 36.1992 37.2008 36.4008 36.8008 36.8008C36.0008 37.6008 36.0008 38.8016 36.8008 39.6016L38.1992 41C38.9992 41.8 40.2 41.8 41 41C41.8 40.2 41.8 38.9992 41 38.1992L39.6016 36.8008C39.2016 36.4008 38.6992 36.1992 38.1992 36.1992ZM24 42C22.8 42 22 42.8 22 44V46C22 47.2 22.8 48 24 48C25.2 48 26 47.2 26 46V44C26 42.8 25.2 42 24 42Z" fill="#FFED4D"/>
</svg>
