<svg width="30" height="45" viewBox="0 0 30 45" fill="none" xmlns="http://www.w3.org/2000/svg">
<path fill-rule="evenodd" clip-rule="evenodd" d="M29.1959 30.4568C29.1959 38.4888 22.6603 45 14.598 45C6.53573 45 0 38.4888 0 30.4568C0 22.645 13.8084 1.19078 14.5657 0.0200228C14.583 -0.00667467 14.6131 -0.00667467 14.6304 0.0200253C15.3877 1.19078 29.1959 22.645 29.1959 30.4568ZM12.1646 40.3375C4.75684 38.7165 6.02446 30.5108 6.02446 30.5108C6.02446 30.5108 8.04725 35.4643 12.9561 37.069C17.8648 38.6735 23.7969 36.32 23.7969 36.32C23.7969 36.32 19.5723 41.9583 12.1646 40.3375Z" fill="#C2C2C2"/>
</svg>
